<svg width="338" height="341" viewBox="0 0 338 341" fill="none" xmlns="http://www.w3.org/2000/svg">
<mask id="mask0_127_72" style="mask-type:luminance" maskUnits="userSpaceOnUse" x="0" y="0" width="338" height="341">
<path d="M102.33 0.880005L0.879883 105.72H64.0199H235.56V273.88V340.4L337.01 235.56V0.880005H102.33Z" fill="white"/>
</mask>
<g mask="url(#mask0_127_72)">
<path d="M-147.8 372.23C-146.76 371.55 -145.52 371.16 -144.35 370.72C-137.84 368.23 -131.7 365.17 -125.79 361.35C-120.39 357.85 -116.53 352.8 -111.47 349.04C-109.26 347.4 -110.27 343.5 -113.07 342.34C-115.21 341.45 -117.18 341.92 -119.03 343.25C-121.37 344.94 -123.82 346.36 -126.91 345.92C-128.45 345.7 -129.96 345.42 -129.93 343.43C-129.91 341.79 -129.08 340.96 -127.39 340.34C-125.63 339.71 -124.12 338.29 -122.65 337.03C-121.91 336.39 -121.52 335.35 -120.8 334.22C-119.93 334.99 -119.41 335.76 -118.71 335.99C-117.73 336.31 -116.56 336.48 -115.57 336.26C-113.78 335.85 -112.1 334.95 -110.31 334.54C-107.84 333.96 -107.32 332.97 -108.69 330.78C-109.02 330.25 -109.46 329.77 -109.85 329.28C-111.04 327.76 -110.68 326.73 -109.04 325.71C-107.2 324.56 -105.54 323.11 -103.82 321.78C-103.4 321.46 -103.07 320.97 -102.61 320.77C-95.5604 317.67 -91.1804 311.59 -86.2804 306.12C-85.2404 304.96 -84.5004 303.52 -83.6804 302.17C-82.2404 299.8 -81.2004 299.4 -78.7704 300.82C-77.0904 301.81 -75.6104 303.13 -73.9704 304.35C-72.4904 303.01 -73.3304 302.03 -74.1204 301.03C-75.7004 299.037 -75.5837 297.08 -73.7704 295.16C-73.3404 294.7 -72.9504 294.2 -72.5404 293.72C-70.8504 291.73 -69.1604 289.75 -66.7604 291.31C-65.0504 290.01 -63.6404 288.97 -62.2804 287.88C-61.6304 287.36 -60.7904 286.83 -60.5204 286.13C-58.6104 281.02 -53.7404 278.79 -50.1804 275.29C-48.9904 274.12 -47.6304 273.02 -46.7904 271.62C-44.6204 268.01 -41.3904 265.74 -37.8004 263.88C-35.7404 262.81 -33.5104 262.07 -31.4804 260.97C-29.2904 259.78 -27.0804 258.52 -25.1504 256.96C-22.3404 254.69 -14.2004 253.5 -11.1604 255.32C-10.4004 255.78 -9.98038 256.79 -9.26038 257.36C-8.60038 257.89 -7.76039 258.18 -6.99039 258.57C-6.63039 257.66 -5.97038 256.75 -6.01038 255.85C-6.04038 255 -6.76037 254.15 -7.25037 253.35C-9.03037 250.43 -8.78039 249.75 -5.46039 248.67C-4.66039 248.41 -3.84039 248.05 -3.02039 248.03C-0.0503857 247.98 1.56964 246.74 3.40964 244.1C5.70964 240.79 9.54965 238.46 12.9496 236.02C14.8396 234.66 16.1596 233.19 16.9796 230.98C18.3996 227.13 19.9496 223.32 23.0696 220.39C25.8996 217.73 26.6196 213.97 27.7696 210.49C29.3096 205.84 32.0696 203.43 36.8296 202.98C39.2396 202.75 41.6596 202.53 44.0796 202.36C46.4096 202.2 48.4696 202.57 50.6796 203.83C53.7296 205.57 57.1996 206.71 60.6196 207.59C62.0096 207.95 63.9296 207.25 65.2996 206.48C67.3996 205.3 69.2296 203.86 71.5696 205.91C71.8996 206.2 72.6396 206.32 73.0596 206.17C75.9096 205.15 78.7096 204.01 81.5496 202.97C85.1696 201.64 88.8396 200.42 92.4396 199.04C93.8496 198.5 95.3096 197.85 96.4396 196.89C98.2796 195.33 99.8196 193.41 101.58 191.74C103.83 189.6 106.31 187.86 109.56 187.59C112.15 187.37 114.01 185.94 115.65 184C117.77 181.49 119.94 179.59 123.79 179.36C126.53 179.2 129.32 176.96 131.74 175.18C133.75 173.7 135.6 172.39 138.2 172.3C140.64 172.21 142.6 171.31 143.65 168.73C144.06 167.73 145.43 166.59 146.46 166.49C150.34 166.12 152.78 163.34 155.81 161.54C157.85 160.33 160.21 159.63 162.19 158.36C164.91 156.61 167.68 154.8 169.94 152.53C172.8 149.66 175.35 146.67 179.77 146.2C180.72 146.1 181.73 145.02 182.42 144.16C183.89 142.31 185.63 141.09 188.03 141.11C190.05 141.13 191.45 140.21 192.46 138.57C193.55 136.83 195.06 136.05 197.15 135.84C200.52 135.5 203.45 134.01 205.5 131.23C206.92 129.31 208.75 128.58 210.99 128.84C214.33 129.23 217.24 128.12 219.96 126.39C223.58 124.09 227.38 122.47 231.78 122.35C233.06 122.32 234.35 121.54 235.57 120.96C239.18 119.27 242.76 117.52 246.34 115.78C247.19 115.37 248.13 115.02 248.8 114.4C250.97 112.38 252.94 110.09 256.41 110.74C256.83 110.82 257.45 110.46 257.82 110.13C260.25 107.97 262.81 105.91 264.99 103.52C266.99 101.33 269.48 100.56 272.14 99.8C275.27 98.9 278.37 97.87 281.41 96.69C282.42 96.3 283.35 95.38 284.02 94.49C287.92 89.32 293.24 85.57 298.7 82.71C302.8 80.56 306.38 78.22 309.55 75.01C310.06 74.5 310.7 74.02 311.37 73.78C319.29 70.95 325.67 65.47 332.87 61.4C337.35 58.87 342.08 56.73 346.33 53.87C350.68 50.95 354.47 47.21 358.72 44.12C360.97 42.48 363.66 41.46 366.15 40.16C366.15 51.35 366.15 62.53 366.15 73.72C360.69 77.84 355.16 81.85 349.81 86.1C344.03 90.69 338.41 95.47 332.76 100.22C330.1 102.46 327.63 104.92 324.94 107.12C318.44 112.43 311.93 117.72 305.3 122.87C301.15 126.1 296.74 128.99 292.55 132.17C288.22 135.46 284.13 139.07 279.71 142.23C276.56 144.48 273.86 147.63 269.27 147.51C267.46 147.47 265.59 148.93 263.78 149.76C258.23 152.31 252.52 154.6 247.18 157.53C239.73 161.62 232.61 166.28 225.24 170.51C223.09 171.74 220.58 172.36 218.22 173.23C217.63 173.45 216.93 173.45 216.41 173.76C207.92 178.8 198.55 182.21 190.46 188.02C186.82 190.63 182.71 192.6 178.84 194.9C177.94 195.43 177.05 196.04 176.33 196.78C174.56 198.6 172.48 199.51 169.96 199.94C168.04 200.27 166.23 201.3 164.41 202.12C158.18 204.95 151.95 207.79 145.76 210.7C139.3 213.73 133.03 217.24 126.39 219.79C120.92 221.89 115.02 222.89 109.31 224.35C107.99 224.69 106.49 224.65 105.34 225.28C101.56 227.35 97.5196 227.52 93.3596 227.55C81.4196 227.65 69.4796 228.06 58.0796 232.14C53.2396 233.87 48.5896 236.13 43.8496 238.14C42.7896 238.59 41.7296 239.06 40.6496 239.45C38.0996 240.37 35.4796 241.13 32.9896 242.19C29.4096 243.71 25.8796 245.37 22.4096 247.12C19.4196 248.63 16.6496 250.63 13.5796 251.91C8.80962 253.9 4.74963 256.6 1.36963 260.58C-0.430371 262.7 -2.85036 264.46 -5.31036 265.81C-7.45036 266.99 -9.99037 267.6 -12.4404 268.04C-14.6204 268.44 -16.5504 268.94 -17.7604 270.96C-18.8404 272.77 -18.5304 273.66 -16.6104 274.29C-11.8504 275.83 -11.6304 276.43 -14.9204 280.16C-18.7004 284.45 -20.2404 289.72 -21.3004 295.07C-22.5104 301.13 -27.0004 304.14 -31.4404 307.29C-35.7104 310.32 -40.0304 313.27 -44.4504 316.07C-49.4004 319.22 -54.4604 322.21 -59.5104 325.19C-62.8604 327.16 -66.2004 329.16 -69.7004 330.84C-74.7104 333.24 -78.7704 336.93 -83.1904 340.13C-85.3104 341.66 -87.7804 342.7 -90.0804 343.98C-92.9204 345.55 -95.8404 347 -98.5804 348.73C-104.27 352.32 -109.57 356.65 -115.57 359.57C-121.13 362.28 -125.93 366.49 -132.13 367.95C-133.09 368.17 -134 368.93 -134.74 369.63M-184.63 373.98C-183.61 370.98 -181.35 369.05 -178.46 368.29C-176.04 367.66 -173.76 367.34 -172.5 364.79C-172.28 364.35 -171.01 364.43 -170.22 364.27C-170.4 365.2 -170.26 366.57 -170.82 366.97C-172.95 368.49 -175.28 369.77 -177.6 371C-179 371.74 -180.04 372.48 -179.97 374.32M-33.1004 281.64C-35.8604 284.64 -39.2104 284.06 -42.7604 284.01C-41.3304 287.45 -42.2404 289.36 -45.3104 290.24C-45.8504 290.4 -46.2904 291.02 -46.7004 291.5C-48.7804 293.88 -51.4104 294.51 -54.4204 294.01C-55.2404 293.87 -56.1104 293.74 -56.9204 293.85C-58.2804 294.04 -59.8704 294.3 -59.6504 296.2C-59.4504 297.9 -58.3004 298.76 -56.5204 298.59C-55.6304 298.51 -54.7504 298.43 -53.8404 298.34C-53.6904 303.9 -55.8204 305.56 -60.5604 303.9C-61.6504 303.52 -62.6604 302.91 -63.7604 302.55C-64.9504 302.16 -66.2304 301.81 -67.1404 303.57C-66.5604 304.02 -65.9704 304.4 -65.4904 304.88C-64.8704 305.49 -63.8004 306.26 -63.8804 306.81C-63.9804 307.51 -65.0004 308.44 -65.7404 308.56C-66.2904 308.65 -67.2204 307.72 -67.6304 307.04C-68.8304 305.08 -70.2604 304.55 -71.8804 306.1C-72.7404 306.92 -73.3204 308.41 -73.3604 309.62C-73.4304 311.38 -72.4904 312.79 -70.6304 313.46C-69.3804 313.91 -68.2404 314.64 -67.0304 315.2C-66.2504 315.57 -65.1904 316.33 -64.7004 316.08C-64.0704 315.75 -63.5704 314.56 -63.5904 313.76C-63.6504 311.84 -62.6804 310.74 -61.1004 310.14C-59.3504 309.48 -57.5504 308.84 -55.7104 308.54C-50.1304 307.66 -46.7304 304.6 -45.2704 299.09C-45.0704 298.33 -44.0604 297.09 -43.6904 297.17C-41.4304 297.71 -40.5404 296.29 -39.3404 294.89C-38.6704 294.11 -37.3704 293.8 -36.3004 293.47C-35.1004 293.1 -33.8004 293.05 -32.6004 292.66C-30.8204 292.07 -30.0904 290.68 -30.5904 288.92C-31.2204 286.72 -32.0704 284.59 -33.1004 281.67V281.64ZM-82.9704 326.97C-82.0604 326.76 -80.7204 326.54 -79.4504 326.1C-78.9804 325.93 -78.4004 325.23 -78.4004 324.77C-78.4004 324.32 -79.0104 323.57 -79.4704 323.46C-81.1804 323.06 -82.9404 322.75 -84.6904 322.64C-85.9504 322.56 -87.5704 322.89 -87.3504 324.48C-87.2304 325.35 -85.8604 326.12 -84.9404 326.78C-84.5804 327.04 -83.9304 326.89 -82.9704 326.96V326.97ZM13.7196 240.79C12.9096 241.19 11.6296 241.76 10.4296 242.47C10.2896 242.55 10.5296 243.75 10.6796 243.77C12.0696 243.94 13.4796 244.04 14.8796 244C15.4596 243.98 16.1296 243.68 16.5796 243.29C17.5496 242.46 17.3596 241.63 16.1896 241.16C15.6296 240.94 14.9696 240.96 13.7296 240.79H13.7196ZM-93.3004 331.15C-91.9204 331.79 -91.1704 332.43 -90.5804 332.32C-89.9504 332.2 -89.4504 331.35 -88.9004 330.82C-89.4404 330.31 -90.0304 329.36 -90.5104 329.41C-91.2604 329.49 -91.9404 330.25 -93.3104 331.15H-93.3004ZM-111.27 340C-110.06 340.5 -109.4 341.03 -108.92 340.9C-108.37 340.75 -107.98 340.01 -107.52 339.52C-108.01 339.09 -108.57 338.25 -108.98 338.32C-109.62 338.42 -110.17 339.14 -111.27 340Z" fill="#4F718E"/>
<path d="M275.58 -9.23999C272.86 -8.20999 270.21 -6.80999 267.4 -6.24999C262.43 -5.24999 258.96 -2.68999 256.84 1.88001C255.57 4.62001 255.73 7.13 257.46 8.95C259.37 10.96 261.71 11.34 264.64 9.66001C266.6 8.54001 268.29 6.94001 270.09 5.53001C270.42 5.27001 270.63 4.81001 270.99 4.66001C274.7 3.09001 278.05 1.03001 280.96 -1.78999C281.4 -2.20999 283.01 -1.91999 283.74 -1.43999C285.5 -0.279995 286.27 1.52001 286.37 3.69001C286.73 11.69 287.21 19.69 287.57 27.69C287.88 34.33 285.03 38.5 278.84 41.13C276.93 41.94 275.15 43.17 273.5 44.45C270.27 46.95 266.76 48.67 262.7 49.43C259.81 49.97 257.03 51.06 254.16 51.78C252.54 52.19 250.85 52.61 249.19 52.59C245.77 52.56 244.82 51.33 245.03 47.89C245.09 46.95 245.1 45.99 244.99 45.05C244.47 40.7 241.79 39.06 237.9 41.11C234.01 43.15 231.29 46.21 231.21 51.05C231.07 60.05 227.41 64.81 218.88 67.6C217.4 68.08 215.99 68.84 214.63 69.61C208.5 73.06 202.35 76.48 196.29 80.06C192.4 82.36 188.54 84.76 184.88 87.4C177.15 92.96 169.21 98.04 159.83 100.43C156.96 101.16 155.08 99.98 154.72 96.99C154.24 92.97 155.84 89.51 157.87 86.27C159.6 83.51 161.52 80.85 163.58 78.34C167.25 73.87 170.67 69.05 175 65.3C178.35 62.39 180.82 58.48 185.08 56.45C187.13 55.47 188.53 53.13 190.25 51.42C193.73 47.94 197.21 44.46 200.73 41.02C201.31 40.45 202.05 39.89 202.81 39.69C206.85 38.59 209.35 35.73 211.66 32.48C212.57 31.19 214.02 30.27 215.26 29.22C215.65 28.89 216.3 28.77 216.57 28.38C219.72 23.71 224.88 21.37 228.88 17.7C230.19 16.49 231.38 15.12 232.46 13.7C234 11.69 233.93 9.97001 232.48 8.24001C230.76 6.19001 228.79 5.65001 226.61 7.13001C224.01 8.90001 221.64 11 219.2 12.99C215.04 16.37 210.84 19.7 206.78 23.2C203.47 26.06 200.35 29.16 197.13 32.13C195.61 33.53 194.12 34.96 192.5 36.23C191.19 37.27 189.72 38.1 188.32 39.02C185.96 40.58 183.58 42.1 181.26 43.72C179.97 44.62 178.67 45.55 177.58 46.67C170.89 53.52 164.14 60.33 157.66 67.39C155.57 69.67 154.14 72.6 152.58 75.34C149.72 80.38 146.8 85.4 144.28 90.61C142.82 93.62 141.96 96.94 141.08 100.19C140.37 102.82 138.97 104.83 136.63 106.05C134.21 107.31 131.72 108.58 129.11 109.3C127.68 109.69 125.7 109.38 124.39 108.64C122.66 107.66 123.64 105.85 124.1 104.35C125.13 101.03 124.61 98.45 122.75 97.51C120.62 96.43 117.63 97.57 115.84 100.51C114.82 102.19 114.05 104.13 113.62 106.05C112.19 112.41 108.28 116.12 102.06 117.64C98.8896 118.41 95.7296 119.24 92.5996 120.14C90.7096 120.68 89.1696 120.36 87.5996 119.13C86.2196 118.05 84.6396 117.16 83.0296 116.46C81.1696 115.65 80.5196 114.55 80.8596 112.51C81.1396 110.81 81.1897 108.99 80.8897 107.31C80.5597 105.42 80.8996 103.89 82.3196 102.75C85.8896 99.87 88.7497 96.01 93.4197 94.58C94.1897 94.34 94.8496 93.71 95.5196 93.21C95.9396 92.9 96.2296 92.38 96.6796 92.14C103.87 88.44 108.81 81.54 116.7 78.63C121.63 76.81 125.98 73.42 130.58 70.72C131.49 70.19 132.29 69.42 133.25 69.04C138.4 66.97 141.98 62.9 145.89 59.24C150.64 54.8 155.48 50.45 160.28 46.07C163 43.58 165.7 41.06 168.49 38.66C169.76 37.57 171.35 36.84 172.6 35.73C175.65 32.99 176.7 29.15 177.71 25.39C178.23 23.45 176.71 21.75 174.59 22.06C172.85 22.31 170.9 23.16 169.64 24.36C165.84 28.01 162.43 32.06 158.68 35.75C156.9 37.49 154.62 38.71 152.67 40.29C150.9 41.73 149.24 43.33 147.58 44.89C146.07 46.31 144.69 47.9 143.1 49.23C139.87 51.91 136.65 54.61 133.22 57.01C128.75 60.15 124.27 63.34 119.47 65.91C111.08 70.4 103.25 75.69 95.3096 80.9C87.7596 85.86 82.2396 92.8 75.4596 98.45C73.2996 100.25 71.9896 103.18 70.5596 105.74C68.9696 108.59 67.5496 111.55 66.3096 114.56C64.9796 117.78 62.3396 119.7 59.7796 121.7C57.5996 123.4 55.3696 123.09 52.5496 121.02C50.5496 119.55 50.7496 117.71 51.4596 115.64C53.9496 108.37 56.6096 101.14 58.7196 93.76C60.4996 87.49 61.4696 81 63.0596 74.67C63.7996 71.74 64.9196 68.82 66.3796 66.18C67.0096 65.04 68.8496 64.32 70.2796 63.93C72.2396 63.4 73.7096 62.57 74.7496 60.77C76.1096 58.42 78.1496 56.89 80.7296 55.86C82.5196 55.14 84.0196 53.7 85.6796 52.63C88.3196 50.93 90.9796 49.27 93.6296 47.6C96.3596 45.87 99.4496 44.52 101.71 42.32C104.73 39.37 108.66 38.48 112.11 36.54C112.84 36.13 113.79 36.04 114.4 35.52C117.19 33.16 119.87 30.69 122.63 28.29C123.42 27.61 124.28 27 125.15 26.42C130.05 23.16 134.84 19.72 139.89 16.71C148.28 11.71 156.49 6.07001 167.01 6.78001C167.81 6.83001 168.76 6.69001 169.43 6.28001C171.67 4.92001 173.98 3.59 175.97 1.9C179.5 -1.08 182.82 -4.30999 186.2 -7.45999C186.73 -7.94999 187.11 -8.60999 187.55 -9.19999C193.46 -9.19999 199.37 -9.19999 205.28 -9.19999C207.81 -6.15999 210.51 -6.15999 214.14 -9.19999C221.95 -9.19999 229.76 -9.19999 237.57 -9.19999C237.06 -8.15999 236.45 -7.15999 236.07 -6.06999C235.37 -4.03999 236.22 -2.24999 238.15 -1.37999C240.8 -0.17999 243.79 -0.249994 244.51 -1.82999C245.57 -4.18999 246.24 -6.72999 247.07 -9.19999C256.57 -9.19999 266.07 -9.19999 275.56 -9.19999L275.58 -9.23999Z" fill="#4F718E"/>
<path d="M366.13 343.45C364.07 343.89 362.02 344.4 359.95 344.76C354.8 345.65 351.36 342.67 351.71 337.36C351.86 334.97 352.64 332.62 353.16 330.25C353.47 328.84 354.29 327.26 352.55 326.28C350.89 325.34 349.48 326.22 348.33 327.43C347.32 328.5 346.54 329.82 345.43 330.76C344.65 331.42 343.49 331.62 342.5 332.02C342.34 330.96 341.87 329.84 342.07 328.86C343.15 323.54 346.95 320.12 351.08 317.2C353.54 315.46 356.52 314.46 359.2 313C360.27 312.42 361.56 311.7 362.02 310.7C362.67 309.27 362.66 307.53 362.93 305.92C361.46 305.69 359.9 305.04 358.54 305.33C356.12 305.85 353.68 306.7 351.49 307.86C346.94 310.26 342.5 312.89 338.1 315.56C336.22 316.7 334.54 318.17 332.75 319.46C331.99 320.01 331.23 320.71 330.37 320.9C329.7 321.05 328.55 320.76 328.21 320.26C327.92 319.83 328.22 318.38 328.67 318.14C331.91 316.4 332.91 313.02 334.68 310.22C335.02 309.68 334.97 308.89 335.11 308.22C334.34 308.2 333.34 307.86 332.84 308.22C330.45 309.91 328.01 311.6 325.95 313.66C323.6 316.01 321.49 317.93 317.72 316.81C315.68 316.2 313.33 316.53 311.12 316.62C308.84 316.72 306.92 320.52 308.11 322.5C308.95 323.89 310.26 323.76 311.44 323.12C312.54 322.52 313.39 321.38 314.53 320.99C315.41 320.69 316.78 320.91 317.5 321.46C317.89 321.76 317.74 323.72 317.22 324.09C315.13 325.62 312.96 327.46 310.54 328.03C301.01 330.29 291.38 332.14 281.78 334.09C277.19 335.02 272.61 336.03 267.98 336.61C263.19 337.21 258.33 337.33 253.51 337.65C246.68 338.11 239.84 338.53 233.01 339.04C231.77 339.13 230.43 339.31 229.33 339.85C222.02 343.41 214 344.37 206.24 346.26C204.57 346.67 202.81 346.91 200.61 345.77C201.32 345.34 201.6 345.03 201.85 345.05C207.47 345.38 209.71 340.29 213.48 337.7C214.48 337.01 215.04 335.19 215.19 333.82C215.6 330.04 217.08 328.91 221 329.45C222.58 329.67 224.4 329.67 225.83 329.09C227.88 328.26 227.9 326.88 226.52 325.06C225.46 323.65 224.54 322.13 223.55 320.67C223.26 320.25 222.92 319.52 222.6 319.51C220.14 319.46 217.97 317.42 215.28 318.67C214.11 319.22 212.62 319.12 211.26 319.23C209.19 319.4 207.11 319.62 205.04 319.58C203.88 319.56 202.74 319.07 201.59 318.79C201.87 317.73 202.02 316.62 202.44 315.62C203.57 312.92 205.62 311.91 208.59 311.58C211.99 311.19 215.27 309.81 218.64 309.05C220.55 308.62 222.57 308.24 224.49 308.41C227.05 308.63 229.25 308.41 231.24 306.62C235.51 302.77 240.15 301.87 245.86 303.68C249.87 304.95 254.46 305.2 257.69 300.96C258.22 300.26 259.51 299.93 260.49 299.81C266.06 299.13 271.9 300.41 277.08 296.88C277.28 297.11 277.47 297.35 277.67 297.58C277.41 298.58 277.21 299.59 276.88 300.57C276.34 302.15 275.93 303.78 277.58 304.84C279.25 305.91 280.89 305.41 282.05 303.89C284 301.34 286.15 300.16 289.38 301.78C291.02 302.61 292.72 302.04 293.85 300.47C294.83 299.11 295.67 297.63 296.72 296.33C297.4 295.48 298.29 294.75 299.2 294.12C300.47 293.25 301.99 292.69 303.14 291.69C304.72 290.31 306.1 290.29 307.61 291.63C307.93 291.91 308.23 292.21 308.53 292.49C312.11 295.85 312.06 295.78 316.02 292.88C317.07 292.11 318.49 291.69 319.8 291.48C326.54 290.37 332.47 287.8 337.32 282.8C339.2 280.87 341.48 279.29 343.75 277.8C344.57 277.26 346.14 276.97 346.91 277.39C350.91 279.58 355.25 281.32 357.03 286.3C357.77 288.37 359.75 289.99 361.17 291.81C362.43 293.43 364.07 294.21 366.13 294.05C366.13 310.51 366.13 326.98 366.13 343.44V343.45ZM266.37 325.01C266.25 325.38 266.12 325.76 266 326.13C267.07 326.77 268.09 327.85 269.22 327.98C272.55 328.38 275.95 328.81 279.26 328.5C285.23 327.95 291.14 326.85 297.09 326.05C299.07 325.78 301.09 325.79 303.07 325.54C304.23 325.4 305.54 325.08 305.2 323.44C304.84 321.7 300.62 319.14 298.82 319.44C296.01 319.91 295.71 319.65 295.93 316.85C296.11 314.5 295.19 313.78 292.96 314.42C291.46 314.85 289.91 315.55 288.4 315.48C283.7 315.29 280.02 317.32 276.82 320.41C274.6 322.56 271.96 323.69 269.03 324.33C268.14 324.53 267.26 324.77 266.37 324.98V325.01Z" fill="#4F718E"/>
<path d="M366.13 28.75C362.89 30.63 359.58 32.41 356.42 34.41C353.23 36.44 350.18 38.69 347.06 40.84C346.45 41.26 345.63 41.47 345.2 42.01C341.88 46.12 336.94 48.08 332.97 51.31C332.56 51.64 332.12 51.94 331.65 52.17C323.79 56.18 315.85 60.04 308.1 64.26C304.23 66.37 300.73 69.15 297.06 71.62C292 75.03 287.07 78.67 281.81 81.74C279.45 83.12 276.45 83.66 273.67 84.02C269.89 84.51 267.65 80.9 268.76 77.29C269.86 73.71 270.83 69.98 271.01 66.27C271.28 60.72 273.46 57.14 278.21 53.94C284.47 49.72 291.31 46.13 296.32 40.09C298.36 37.63 301.29 35.88 303.93 33.98C310.25 29.43 316.79 25.17 322.96 20.41C326.51 17.67 329.46 14.15 332.76 11.08C335.67 8.37001 338.65 5.74001 341.68 3.16001C343.36 1.73001 345.18 0.48001 346.97 -0.80999C349.43 -2.58999 351.96 -4.27999 354.39 -6.09999C355.64 -7.03999 356.72 -8.18999 357.88 -9.23999C360.62 -9.23999 363.37 -9.23999 366.11 -9.23999C366.11 3.42001 366.11 16.09 366.11 28.75H366.13Z" fill="#4F718E"/>
<path d="M169.84 -9.23999C163.97 -4.83999 157.46 -1.89999 150.07 -1.78999C144.62 -1.70999 139.91 -0.249986 135.92 3.46001C133.07 6.10001 130.36 8.92001 127.31 11.3C124.62 13.4 121.54 15 118.64 16.83C117.68 17.44 116.6 17.94 115.82 18.74C112.79 21.84 109.78 24.92 105.73 26.73C105.07 27.03 104.5 27.53 103.9 27.96C99.2998 31.27 94.7298 34.63 90.0798 37.87C88.7998 38.76 87.2299 39.21 85.8399 39.96C84.6599 40.6 83.5499 41.37 82.4199 42.1C76.7899 45.74 72.0098 50.48 66.0498 53.82C60.6698 56.83 55.8899 60.82 49.4699 61.57C48.8099 61.65 48.1698 62.26 47.6098 62.73C45.2198 64.71 42.7099 64.45 40.2299 63.07C37.6599 61.63 36.8898 59.44 37.1098 56.41C37.3998 52.56 38.6699 49.41 41.0699 46.37C43.2499 43.6 44.5299 40.14 46.5999 37.26C48.1599 35.1 50.3399 33.4 52.2499 31.5C52.6899 31.06 53.2099 30.67 53.5899 30.19C55.2799 28.05 56.9199 25.88 58.5999 23.74C62.3999 18.89 67.8099 15.75 72.0399 11.48C75.6899 7.79 79.7899 5.03 83.9499 2.15C87.4899 -0.299999 90.7099 -3.19999 94.1899 -5.73999C95.2499 -6.51999 96.7199 -6.72 97.9499 -7.3C99.1499 -7.87 100.28 -8.58 101.44 -9.23C124.24 -9.23 147.03 -9.23 169.83 -9.23L169.84 -9.23999Z" fill="#4F718E"/>
<path d="M82.4595 -9.23999C81.5195 -8.59999 80.5995 -7.92999 79.6295 -7.33999C78.6495 -6.73999 77.5495 -6.31999 76.6295 -5.64999C71.3595 -1.77999 66.0895 2.07001 60.9195 6.07001C58.9395 7.61001 57.3595 9.67001 55.3995 11.24C48.3095 16.94 42.8995 23.99 38.1995 31.69C36.8895 33.84 35.3495 35.88 33.7395 37.82C30.4695 41.77 28.1395 46.14 26.6295 51.08C25.8495 53.62 23.9795 55.82 22.6795 58.21C20.4195 62.33 17.6495 66.16 16.8095 71.01C16.4895 72.83 15.2495 74.82 13.8295 76.04C8.4595 80.64 2.75951 84.83 -3.89049 87.48C-9.22049 89.6 -11.6805 87.97 -11.7505 82.18C-11.7805 79.41 -11.1205 76.91 -9.3505 74.52C-6.5205 70.71 -5.68049 66.06 -5.37049 61.42C-5.19049 58.74 -4.85049 56.29 -3.40049 53.91C-2.10049 51.79 -1.46049 49.27 -0.340487 47.02C1.79951 42.72 4.04952 38.47 6.31952 34.24C6.74952 33.43 7.5495 32.82 8.1495 32.1C9.1495 30.89 10.1195 29.67 11.0995 28.44C12.5295 26.64 13.9395 24.81 15.3795 23.02C15.8395 22.45 16.6195 22.01 16.8195 21.37C18.1495 17.14 21.2595 14.15 23.9995 10.91C24.2695 10.59 24.3995 10.11 24.7295 9.89001C31.4795 5.24001 34.5195 -2.00999 37.9795 -8.95999C38.0295 -9.04999 38.0895 -9.14 38.1495 -9.23C52.9195 -9.23 67.6995 -9.23 82.4695 -9.23L82.4595 -9.23999Z" fill="#4F718E"/>
<path d="M366.13 276.33C361.33 272.06 356.37 267.95 351.8 263.45C349.51 261.2 347.77 258.32 346.05 255.56C341.93 248.94 337.69 242.44 331.78 237.21C330.99 236.51 330.09 235.83 329.59 234.94C327.34 230.93 323.5 229.06 319.65 227.06C317.52 225.96 315.58 225.59 313.33 226.46C306.95 228.93 300.51 231.23 294.17 233.8C285.1 237.48 276.19 241.54 267.05 245.03C262.27 246.86 257.2 247.34 252.39 244.49C249.18 242.58 248.68 241.2 249.88 237.75C250.81 235.09 252.31 233 254.46 231.13C257.69 228.3 260.6 225.11 263.63 222.05C266.05 219.61 269.07 218.42 272.37 218.02C275.94 217.59 278.91 216.02 281.91 214.14C284.74 212.37 287.9 211.08 291.01 209.8C291.99 209.4 293.48 209.33 294.37 209.8C299.28 212.36 304.72 211.4 309.86 212.34C311.61 212.66 313.33 213.29 315.08 213.36C318.84 213.51 322.61 213.47 326.37 213.34C328.15 213.28 329.92 212.57 331.68 212.61C334.05 212.67 336.41 213.13 338.77 213.49C340.22 213.71 341.64 214.13 343.09 214.31C345.08 214.57 345.86 215.49 346.06 217.61C346.48 222.08 347.29 226.52 348.04 230.96C348.15 231.62 348.65 232.45 349.22 232.75C353.67 235.07 355.33 239.83 358.49 243.27C360.61 245.58 362.19 248.39 364.08 250.93C364.64 251.68 365.43 252.25 366.12 252.9C366.12 260.71 366.12 268.52 366.12 276.33H366.13Z" fill="#4F718E"/>
<path d="M21.0399 -9.23999C18.0099 -5.01999 15.9199 -0.369992 14.1299 4.50001C13.3499 6.64001 11.4599 8.53001 9.69994 10.11C3.34994 15.8 -1.72008 22.27 -4.96008 30.29C-6.38008 33.82 -9.10008 36.83 -11.2401 40.08C-11.3601 40.26 -11.5401 40.41 -11.6001 40.6C-13.3401 47.09 -18.6201 51.68 -20.8901 57.89C-21.2601 58.9 -22.0801 60.16 -22.9801 60.48C-28.8701 62.52 -34.5301 65.7 -41.1901 64.38C-42.6601 64.09 -44.3301 64.46 -45.8501 64.8C-49.0601 65.52 -52.3201 63.8 -54.5201 60.03C-56.2001 57.15 -56.0501 53.26 -53.7601 51.28C-50.6601 48.6 -48.8901 45.42 -48.0701 41.39C-47.4001 38.12 -45.8001 35.19 -43.4701 32.54C-40.5901 29.26 -38.3301 25.43 -35.8001 21.84C-35.5601 21.5 -35.3901 21.08 -35.0901 20.8C-29.2401 15.19 -25.4401 8.15 -21.5501 1.2C-19.6501 -2.19 -18.0601 -5.75 -16.3201 -9.23C-3.87008 -9.23 8.58993 -9.23 21.0399 -9.23V-9.23999Z" fill="#4F718E"/>
<path d="M366.13 116.76C360.01 118.44 354.89 121.96 349.97 125.76C346.64 128.33 343.36 131.04 340.45 134.07C336.04 138.66 331.45 143.13 328.73 149.12C327.35 152.16 324.86 154.15 321.54 155.35C315.89 157.4 310.24 156.32 304.72 155.46C301.87 155.02 299.13 153.07 296.63 151.39C294.44 149.92 294.79 145.33 297.01 143.51C302.4 139.12 307.84 134.79 313.25 130.43C318 126.6 322.71 122.7 327.52 118.94C330.5 116.61 333.99 114.83 336.63 112.19C341.65 107.15 347.12 102.6 351.95 97.32C355.92 92.98 361.35 89.97 366.13 86.37C366.13 96.5 366.13 106.63 366.13 116.76Z" fill="#4F718E"/>
<path d="M366.13 197.81C360.91 198.33 355.69 198.92 350.45 199.34C347.94 199.54 345.41 199.38 342.89 199.43C338.05 199.52 333.21 199.73 328.37 199.7C326.07 199.69 323.76 199.35 321.49 198.94C319.95 198.67 318 198.16 318.09 196.25C318.17 194.74 318.92 192.98 319.94 191.85C321.9 189.67 324.35 187.94 326.41 185.85C328.09 184.14 329.42 182.08 331.07 180.34C332.2 179.15 333.6 178.19 334.93 177.21C335.42 176.85 336.19 176.85 336.66 176.47C341.77 172.28 347.87 169.93 353.91 167.64C357.78 166.18 362.04 165.77 366.13 164.89C366.13 175.87 366.13 186.84 366.13 197.82V197.81Z" fill="#4F718E"/>
<path d="M340.8 -9.23999C337.65 -3.90999 332.81 -0.479986 327.76 2.85001C325.44 4.38001 323.7 6.78 321.65 8.73C320.08 10.23 318.46 11.67 316.81 13.08C314.66 14.91 312.63 16.96 310.25 18.41C307.13 20.31 303.73 21.76 300.41 23.32C298.45 24.24 296.81 23.52 295.83 21.75C295.03 20.3 294.39 18.69 294.07 17.08C292.31 8.28001 292.68 -0.499996 294.57 -9.23C309.98 -9.23 325.39 -9.23 340.79 -9.23L340.8 -9.23999Z" fill="#4F718E"/>
<path d="M69.2398 192.06C68.9198 192.06 68.6098 192.07 68.2898 192.06C63.2798 191.8 60.4298 189.94 59.7898 186.51C59.0798 182.73 61.8098 178.15 65.1398 175.95C69.5098 173.07 73.5098 169.64 77.6598 166.42C78.2398 165.97 78.6098 165.2 79.2298 164.89C83.0398 162.95 86.8898 161.09 90.7398 159.23C91.7798 158.73 92.9698 158.47 93.8798 157.81C95.5098 156.63 97.2098 156.39 99.1898 156.32C103.24 156.17 106.37 153.98 108.55 150.65C109.78 148.76 109.65 146.65 108.34 144.68C107.05 142.74 105.25 142.81 103.28 143.16C96.4398 144.37 90.1298 146.85 84.4198 150.83C78.4698 154.97 72.2398 158.77 66.6098 163.31C60.3098 168.4 54.3798 173.98 49.8698 180.87C47.6898 184.19 42.1898 186.19 38.3798 185.29C33.0498 184.03 27.7198 182.75 22.3998 181.42C21.2898 181.14 20.1798 180.72 19.1498 180.21C15.9698 178.6 15.3898 177.43 15.9198 173.87C16.6498 169 18.1198 164.59 23.0798 162.34C23.2698 162.25 23.4898 162.14 23.5898 161.98C26.8898 156.25 33.9098 154.24 37.1498 148.45C37.1998 148.36 37.2898 148.29 37.3698 148.22C40.9598 145.44 45.5798 144.35 48.8398 140.87C49.7198 139.93 52.2498 140.41 54.0098 140.47C55.4698 140.52 56.9598 141.19 58.3698 141.04C59.7098 140.9 61.6698 140.38 62.1498 139.43C63.4698 136.81 64.9398 137.08 67.2698 137.83C68.6698 138.28 71.1398 138.11 71.9298 137.19C74.6998 133.96 78.2898 134.28 81.8098 134.07C85.0598 133.87 88.3498 134.07 91.5598 133.68C93.0898 133.49 94.6998 132.54 95.9198 131.52C98.5198 129.36 99.0598 129.18 102.03 130.91C105.24 132.77 104.91 132.3 108.15 130.06C110.37 128.52 113.9 127.47 116.4 128.07C120.59 129.08 123.56 127.23 126.76 125.64C128.55 124.75 129.97 124.65 131.81 125.42C132.92 125.89 134.62 125.89 135.67 125.36C137.9 124.22 140.38 122.99 141.84 121.09C144.68 117.42 148.63 116.02 152.62 115.97C158.16 115.9 162.04 113.11 166.27 110.32C169.47 108.21 173.2 106.92 176.68 105.25C179.12 104.08 181.64 103.03 183.96 101.64C187.8 99.35 191.46 96.78 195.26 94.43C200.01 91.5 204.83 88.68 209.61 85.79C212.22 84.22 214.73 82.46 217.44 81.09C219.15 80.22 221.11 79.58 223 79.43C225.86 79.2 228.61 79.25 229.14 75.5C229.19 75.13 229.5 74.64 229.82 74.47C232.68 72.95 234.07 70.36 235.53 67.6C237.15 64.53 240.68 64.38 243.62 64.05C248.3 63.53 253.04 63.27 257.56 65.46C260.07 66.67 260.99 67.81 260.47 70.6C260.3 71.53 260.07 72.47 259.71 73.34C257.42 78.87 256.47 84.69 255.97 90.59C255.74 93.36 254.6 95.49 252.75 97.58C247.46 103.54 240.16 105.72 233.16 108.52C231.31 109.26 229.45 110.01 227.62 110.79C222.98 112.78 218.34 114.76 213.73 116.82C207.03 119.82 200.33 122.85 193.68 125.97C189.12 128.11 184.59 130.32 180.13 132.65C172.59 136.6 165.01 140.48 157.66 144.76C153.41 147.23 149.63 150.5 145.52 153.24C141.42 155.98 137.28 158.72 132.97 161.11C119.54 168.56 106.02 175.87 92.5198 183.2C88.1698 185.56 83.9098 188.13 79.3698 190.04C76.2298 191.36 72.6698 191.71 69.2998 192.49C69.2698 192.35 69.2398 192.22 69.2098 192.08L69.2398 192.06Z" fill="#4F718E"/>
<path d="M50.9497 83.3C50.0797 85.95 49.2597 88.33 48.4997 90.73C45.6197 99.88 42.8397 109.05 39.8597 118.17C38.7697 121.52 38.2397 124.78 38.2297 128.35C38.2297 130.75 36.8197 133.47 35.2797 135.45C33.1797 138.14 30.4397 140.38 27.7897 142.6C22.6297 146.93 17.3397 151.1 12.1297 155.36C11.6497 155.75 11.2597 156.28 10.8697 156.77C5.27972 164.03 -0.15027 171.42 -5.94027 178.52C-10.2003 183.74 -14.9203 188.58 -19.4203 193.6C-20.1203 194.38 -20.8303 195.18 -21.3903 196.06C-24.9403 201.65 -28.2703 207.39 -32.0403 212.81C-34.4303 216.25 -37.3703 218.88 -42.1203 219.65C-51.2503 221.14 -59.2303 225.39 -65.6103 232.27C-71.9103 239.07 -78.1203 245.96 -84.4503 252.73C-88.0503 256.58 -91.4803 260.73 -95.6403 263.87C-99.5303 266.81 -104.28 268.63 -108.68 270.89C-110.36 271.75 -112.1 272.5 -113.84 273.24C-114.8 273.65 -115.78 274.1 -116.8 274.28C-121.8 275.17 -123.99 272.44 -122.25 267.65C-120.43 262.64 -117.68 258.2 -114.24 254.15C-111.52 250.94 -109.08 247.47 -106.19 244.44C-104.49 242.66 -102.25 241.3 -100.06 240.12C-98.1103 239.07 -96.8603 237.8 -95.8603 235.74C-92.6003 229.01 -89.0803 222.41 -85.4203 215.89C-84.6003 214.43 -82.7503 213.59 -81.4703 212.36C-79.8303 210.79 -78.2903 209.11 -76.6903 207.49C-75.2403 206.02 -73.9203 204.34 -72.2503 203.17C-70.7403 202.12 -69.5203 201.31 -70.0003 199.2C-70.3903 197.48 -69.5503 196.97 -67.8503 197.22C-64.2903 197.73 -62.1803 196.68 -60.7303 193.51C-59.7203 191.31 -58.3303 190.31 -55.8403 190.37C-54.6303 190.4 -53.2203 189.74 -52.2003 188.99C-48.9803 186.61 -45.8203 184.15 -42.8003 181.52C-40.5203 179.54 -38.6203 177.11 -36.3203 175.16C-34.9203 173.97 -33.0203 173.37 -31.4503 172.35C-29.5203 171.09 -27.7103 169.66 -25.8403 168.32C-23.9603 166.97 -21.9703 165.76 -20.2103 164.27C-18.5603 162.87 -17.0003 161.31 -15.6903 159.6C-12.7703 155.78 -10.1103 151.75 -7.20026 147.93C-5.03026 145.08 -2.69027 142.36 -0.330269 139.68C3.41973 135.43 7.11973 131.12 11.0997 127.09C15.3697 122.77 19.0797 118.16 21.2597 112.41C21.8197 110.93 22.3897 109.29 21.0097 108.38C19.9797 107.7 18.1297 107.46 16.9797 107.9C11.8597 109.86 8.22971 113.89 5.29971 118.22C-0.520287 126.79 -7.08026 134.76 -13.9803 142.42C-19.3903 148.42 -25.5103 153.79 -31.4103 159.34C-32.4303 160.3 -33.8903 161.01 -35.2603 161.33C-38.7303 162.15 -41.7403 163.61 -44.4303 166.01C-46.1303 167.52 -48.3403 168.45 -50.2403 169.76C-51.8003 170.83 -53.2903 172 -54.7303 173.22C-56.9603 175.1 -58.6803 175.23 -60.3403 172.9C-61.3503 171.48 -62.0103 169.43 -61.9403 167.7C-61.8003 164.25 -61.3803 160.73 -60.4503 157.41C-59.6703 154.63 -58.2603 151.94 -56.6503 149.52C-54.9203 146.92 -52.6303 144.68 -50.5703 142.29C-50.2303 141.89 -49.7703 141.57 -49.5003 141.14C-45.2203 134.21 -39.1903 129.04 -32.7403 124.27C-32.2403 123.9 -31.6403 123.46 -31.4303 122.92C-29.8703 118.81 -26.4903 116.09 -23.5003 113.28C-20.7303 110.67 -17.1303 108.86 -13.6903 107.07C-10.9903 105.67 -7.92027 105.01 -5.16027 103.72C-3.02027 102.72 -1.09027 101.26 0.919731 100C1.17973 99.83 1.36974 99.43 1.62974 99.4C6.09974 98.82 9.00972 95.19 12.9597 93.65C15.4597 92.67 17.0097 91.43 17.4297 88.58C17.6197 87.25 18.8897 85.97 19.9197 84.9C20.9197 83.86 22.2297 83.13 23.3997 82.26C23.8197 81.95 24.2597 81.34 24.6497 81.38C27.6997 81.65 30.3497 79.19 33.5797 80.2C34.5197 80.49 35.9997 79.81 36.9397 79.16C38.6597 77.96 40.0697 76.32 41.7797 75.11C44.7797 72.99 47.1097 73.59 48.6297 76.9C49.5797 78.98 50.2097 81.2 50.9697 83.33L50.9497 83.3Z" fill="#4F718E"/>
<path d="M137.51 321.55C139.26 320.59 140.68 319.45 142.3 318.98C146.89 317.66 149.59 314.57 151.24 310.31C151.47 309.72 151.75 309.15 151.95 308.55C152.66 306.42 153.79 306.39 155.85 307.09C157.7 307.72 159.93 307.49 161.94 307.24C162.61 307.16 163.68 305.74 163.57 305.09C163.44 304.33 162.32 303.39 161.48 303.19C160.43 302.94 159.21 303.55 158.09 303.47C157.18 303.41 155.85 303.11 155.53 302.5C155.17 301.79 155.4 300.36 155.93 299.69C156.68 298.75 157.99 298.28 158.97 297.5C159.5 297.07 160.28 296.29 160.17 295.88C159.99 295.2 159.26 294.36 158.61 294.19C157.44 293.89 156 293.64 154.96 294.07C152.64 295.02 150.27 296.13 148.34 297.68C146.03 299.54 143.64 300.74 140.7 301.11C137.6 301.5 137.45 301.86 138.21 304.9C138.67 306.73 137.87 308.07 135.56 308.26C133.02 308.46 131.3 309.19 130.91 311.93C130.86 312.3 130.43 312.93 130.22 312.91C126.58 312.61 123.43 317.17 119.39 313.75C117.47 312.12 115.49 312.72 113.54 314.81C112.32 316.12 111.23 317.55 110.15 318.98C108.8 320.78 107.1 321.64 104.92 320.83C103.25 320.21 102.06 320.85 100.52 321.48C97.2995 322.79 94.1195 324.51 90.2795 323.54C86.2995 322.54 84.8195 323.42 82.6795 327.14C82.3595 327.69 82.1395 328.29 81.7395 329.15C80.5495 327.67 79.9995 326.98 79.1295 325.9C77.2295 328.59 75.4195 330.95 73.8495 333.46C72.6595 335.35 71.1395 336.03 69.0495 335.52C68.3395 335.35 67.6895 334.96 67.0195 334.65C62.1195 332.35 58.4795 334.74 58.4695 340.24C58.4695 342.12 59.1995 343.49 60.9295 344.29C65.4795 346.4 70.1695 346.27 74.8295 344.86C75.9095 344.53 76.8195 343.37 77.6195 342.43C80.5195 339.04 81.7595 338.66 85.8295 340.19C89.3495 341.51 92.7695 341.91 96.0395 339.43C96.7695 338.87 97.7295 338.46 98.6395 338.32C99.4695 338.19 100.37 338.53 101.24 338.66C100.84 339.41 100.62 340.5 99.9895 340.86C98.5595 341.68 96.9595 342.46 95.3595 342.69C91.8895 343.19 88.4495 343.57 85.6295 345.97C85.1695 346.36 84.4995 346.53 83.8895 346.69C76.7595 348.55 69.6395 350.42 62.4895 352.2C60.9695 352.58 59.3395 352.91 57.8095 352.78C54.6295 352.51 51.6395 352.46 48.5695 353.86C46.0395 355.02 43.2495 353.96 41.8795 351.73C41.2395 350.69 40.8195 349.02 41.1995 347.95C42.6795 343.76 45.1395 340.26 49.5095 338.54C50.1895 338.27 51.1295 338.13 51.4895 337.62C53.9095 334.08 57.8295 332.66 61.2895 330.67C64.2695 328.95 67.5595 327.78 70.6695 326.27C71.9395 325.65 73.5795 325.05 74.1895 323.96C75.4295 321.74 77.2295 320.83 79.4895 320.45C82.1595 320 84.5895 319.12 86.4595 317.07C86.5995 316.92 86.7795 316.75 86.9695 316.7C90.7395 315.76 93.9595 313.97 96.9795 311.42C99.1495 309.59 102.12 309.48 105.13 310.01C106.67 310.28 108.8 309.63 110.05 308.64C113.84 305.63 117.78 304.19 122.68 305.14C124.15 305.43 125.9 304.49 127.48 304C129.29 303.44 129.52 301.89 129.88 300.27C130.09 299.34 130.96 298.5 131.68 297.76C132.85 296.55 134.13 295.45 135.39 294.33C135.86 293.92 136.4 293.36 136.95 293.31C140.12 293.02 143.3 292.9 146.46 292.64C147.64 292.54 148.98 292.54 149.96 291.99C154.6 289.35 158.91 285.97 163.79 283.95C167.75 282.31 171.62 280.62 175.29 278.43C176.78 277.54 178.28 276.65 179.78 275.78C180.59 275.31 181.37 274.68 182.25 274.49C184.11 274.09 185.08 273.05 185.84 271.33C186.29 270.32 187.48 269.56 188.48 268.91C190.21 267.78 192.04 266.8 193.85 265.8C196.31 264.44 198.78 263.1 201.26 261.78C203.02 260.84 204.79 259.91 206.6 259.06C208.95 257.95 211.34 256.92 213.71 255.86C214.38 255.56 215.38 255.44 215.65 254.93C217.36 251.76 220.93 251.23 223.52 249.34C224.59 248.56 226.47 248.5 227.91 248.68C231.66 249.14 235.33 250.21 239.19 249.23C240.01 249.02 241.27 249.53 241.98 250.12C244.85 252.51 246.2 255.61 245.56 259.39C245.12 261.99 244.54 264.57 244.1 267.17C243.59 270.17 243.89 273.02 245.65 275.66C246.56 277.02 247.45 277.27 248.76 276.31C251.95 273.97 254.88 271.47 255.58 267.21C255.78 265.99 256.26 264.75 256.9 263.7C257.28 263.08 258.27 262.45 258.92 262.52C259.5 262.58 260.16 263.52 260.45 264.21C261.49 266.72 261.99 269.57 263.46 271.77C265.05 274.15 267.33 276.19 269.64 277.95C271.81 279.6 275.71 277.54 276.46 274.34C277.38 270.41 277.06 266.57 274.24 263.31C273.62 262.59 272.93 261.92 272.41 261.14C270.91 258.87 271.04 256.81 272.8 254.76C274.87 252.35 277.52 250.89 280.65 250.38C284.26 249.8 287.06 248.16 289.24 245.1C291.56 241.83 295.55 241 299.03 239.71C301.64 238.74 304.59 238.7 307.4 238.32C309.59 238.03 311.79 237.84 313.99 237.63C316.08 237.43 316.93 238.16 317 240.25C317.04 241.61 316.77 243.02 317.03 244.33C317.4 246.23 318.7 246.58 320.28 245.43C324.12 242.64 325.51 243.17 326.44 247.97C326.94 250.57 328.26 252.55 329.97 254.53C332.7 257.67 335.22 261.01 337.55 264.46C338.07 265.23 337.85 267.04 337.27 267.93C334.46 272.24 330.77 275.65 326 277.75C323.6 278.81 321.15 279.75 318.71 280.74C316.87 281.49 314.98 282.09 313.61 280.03C312.18 277.86 310.38 275.69 311.96 272.79C313.32 270.29 314.97 267.91 315.98 265.28C316.98 262.69 317.75 259.86 317.87 257.11C318 253.8 315.32 252.15 312.21 253.42C308.99 254.74 306.53 256.85 305.7 260.58C304.98 263.82 304.69 266.93 305.39 270.25C306.71 276.48 303.54 282.18 297.91 285.07C294.54 286.8 291.13 287.6 287.35 287.86C273.08 288.85 258.83 290.1 244.58 291.31C241.98 291.53 239.41 292.04 236.83 292.41C236.31 292.48 235.68 292.72 235.28 292.53C230.12 290.01 225.48 293.98 220.49 293.73C219.68 293.69 218.78 294.45 218 294.98C213.87 297.78 209.66 300.21 204.48 300.75C202.26 300.98 200.14 302.27 197.98 303.09C193.67 304.73 189.41 306.56 185.03 307.99C178.65 310.09 172.15 311.83 165.75 313.88C162.85 314.8 160.06 316.05 157.24 317.19C152.97 318.92 148.69 320.65 144.45 322.47C142.24 323.42 140.33 323.33 137.5 321.56L137.51 321.55ZM172.52 304.16C174.54 303.78 175.89 303.54 177.23 303.27C182.26 302.24 184.63 298.8 184.18 293.7C183.97 291.32 184.14 288.89 184.39 286.51C184.55 284.97 184.04 284.11 182.75 283.48C180.68 282.46 179.19 282.76 177.59 284.93C176.02 287.05 173.97 288.04 171.44 288.35C169.98 288.53 168.5 288.74 167.11 289.17C164.82 289.89 164.45 292.08 164.12 294C163.99 294.75 164.76 296.15 165.47 296.45C167.87 297.45 168.86 299.38 169.91 301.52C170.47 302.67 171.78 303.45 172.52 304.17V304.16ZM189.94 284.85C191.06 286.01 191.9 286.87 192.74 287.73C193.61 286.81 195.29 285.75 195.16 285.01C194.93 283.74 193.57 282.68 192.68 281.53C191.88 282.49 191.08 283.46 189.94 284.84V284.85ZM48.4095 348.4C49.5495 350.03 50.8695 351.18 52.8595 350.51C53.4395 350.32 54.2295 349.09 54.0695 348.67C53.6895 347.69 52.9395 346.48 52.0495 346.15C50.2295 345.48 49.3095 346.97 48.4095 348.39V348.4ZM201.2 293.53C200.14 292.55 199.43 291.43 198.93 291.52C198.14 291.66 197.18 292.49 196.89 293.26C196.73 293.68 197.79 295.1 198.32 295.11C199.11 295.12 199.91 294.29 201.2 293.53Z" fill="#4F718E"/>
<path d="M-111.59 374.2C-110.32 373.95 -108.87 372.56 -108.29 371.32C-107.3 369.21 -106.07 367.92 -103.73 367.46C-102.6 367.24 -101.39 366.49 -100.59 365.64C-98.8903 363.81 -97.1103 362.94 -94.7103 364.09C-93.2303 364.8 -92.2803 364.24 -91.6803 362.85C-89.6803 358.21 -85.7903 355.62 -81.5403 353.35C-77.3103 351.08 -73.1303 348.7 -70.1703 344.74C-69.2203 343.46 -68.2303 342.69 -66.4503 343.06C-64.1503 343.55 -62.3603 342.23 -60.8403 340.74C-58.5103 338.46 -55.7703 337.27 -52.6703 336.24C-48.9703 335.01 -45.3603 333.12 -43.0303 329.61C-42.0403 328.12 -40.9403 326.69 -39.7803 325.33C-39.3003 324.77 -38.5303 324.46 -37.5503 323.82C-37.4103 326.86 -37.4303 329.15 -37.1703 331.42C-36.9303 333.51 -35.7603 334.94 -33.4803 335.06C-31.6203 335.16 -29.3303 333.35 -28.8503 331.37C-28.3103 329.15 -29.3803 327.73 -31.3203 326.83C-31.7003 326.65 -32.1003 326.51 -32.4703 326.3C-34.7203 324.99 -34.9603 323.4 -32.7803 321.93C-30.8103 320.6 -28.5903 319.48 -26.3203 318.79C-22.4403 317.61 -18.6003 316.78 -16.8603 312.36C-16.0303 310.26 -14.4803 308.46 -13.3403 306.47C-12.3803 304.8 -11.1303 304.3 -9.39034 305.19C-8.73034 305.53 -8.10034 305.9 -7.46034 306.28C-5.90034 307.2 -4.78034 306.85 -3.74034 305.33C-1.96034 302.74 -1.08034 302.47 1.80966 303.68C4.44966 304.78 6.82966 305.39 8.77966 302.48C9.05966 302.06 10.1097 301.83 10.6797 301.97C14.6897 302.95 17.6397 301.11 20.5597 298.73C21.5897 297.89 23.1096 297.14 24.3596 297.2C27.5496 297.35 30.3297 296.63 33.1297 295.13C34.6997 294.29 36.7397 293.87 38.5197 294C43.9397 294.37 49.1796 294.14 54.1096 291.51C55.8496 290.58 57.3197 291.35 58.6597 292.63C61.8797 295.7 61.9397 295.73 65.4897 293.22C69.0197 290.72 73.0897 291.08 76.9997 291.08C80.1497 291.08 80.2797 291.17 80.9197 287.94C81.1197 286.95 82.0497 286.02 82.8197 285.24C84.3597 283.67 85.9197 282.11 87.6597 280.78C88.7597 279.94 90.1797 279.49 91.4797 278.92C92.9797 278.26 94.7197 277.94 95.9797 276.97C98.9697 274.67 101.81 272.47 105.59 275.86C106.16 274.81 106.45 274.01 106.96 273.4C107.75 272.45 108.58 271.07 109.61 270.85C112.29 270.28 114.95 270.02 116.78 267.59C116.88 267.45 118.46 267.95 118.66 268.44C119.32 270.08 120.6 270.37 122.08 270.8C125.31 271.75 128.51 272.83 131.6 274.16C134.34 275.33 134.93 277.84 132.97 280.06C131.53 281.68 129.79 283.35 127.84 284.16C121.14 286.94 114.22 289.21 107.49 291.93C99.8797 295.01 92.3497 298.31 84.8397 301.63C80.7997 303.41 76.8097 305.32 72.8997 307.36C66.4597 310.73 60.2597 314.59 53.6897 317.65C44.4597 321.95 36.4897 328.17 27.9797 333.57C23.7497 336.25 19.4597 338.9 14.9597 341.08C9.98966 343.48 4.71966 345.23 -0.350342 347.43C-4.08034 349.05 -7.70034 350.93 -11.3603 352.72C-11.9303 353 -12.4503 353.65 -12.9903 353.63C-14.2403 353.59 -15.4803 353.26 -16.7203 353.04C-16.2703 352.1 -15.9603 351.06 -15.3603 350.24C-13.9403 348.29 -12.2603 346.51 -10.9603 344.49C-10.5303 343.82 -10.9203 342.63 -10.9403 341.67C-11.8003 341.79 -12.7403 341.73 -13.5103 342.07C-14.9603 342.72 -16.3103 343.59 -17.7103 344.37C-17.9703 344.12 -18.2303 343.87 -18.4903 343.62C-18.1003 342.82 -17.7903 341.96 -17.2803 341.23C-17.0103 340.84 -16.4103 340.66 -15.9403 340.43C-14.2503 339.64 -12.5603 338.79 -13.2903 336.48C-13.6603 335.31 -16.7503 334.74 -18.5203 335.35C-22.5303 336.72 -23.7603 340.29 -21.5003 343.98C-21.2403 344.41 -21.0003 344.86 -20.7103 345.37C-21.9103 346.99 -23.3403 346.32 -24.7603 346.19C-25.9403 346.08 -27.4503 345.92 -28.3103 346.51C-30.7203 348.17 -32.9603 347.45 -35.2203 346.51C-36.3703 346.03 -37.3703 345.19 -38.4503 344.53C-40.0303 343.57 -40.7503 342.31 -40.6903 340.35C-40.6603 339.31 -41.5503 338.23 -42.0203 337.17C-43.0203 337.96 -44.1403 338.65 -44.9803 339.58C-45.4103 340.05 -45.1703 341.07 -45.5103 341.68C-46.1303 342.8 -46.7503 344.14 -47.7603 344.79C-49.5703 345.95 -50.4003 347.25 -50.2903 349.44C-50.0403 354.81 -53.3403 356.91 -58.1503 354.86C-60.3303 353.93 -62.7803 353.38 -65.1503 353.22C-68.9303 352.97 -70.5003 355.5 -69.0203 358.93C-68.6703 359.74 -68.4003 360.59 -68.0403 361.56C-70.4203 361.44 -72.4003 361.34 -74.7303 361.23C-75.4703 359.76 -76.4203 357.86 -77.2303 356.26C-80.4403 358.16 -83.2403 359.75 -85.9603 361.45C-86.8103 361.98 -87.9603 362.71 -88.1403 363.54C-88.6903 366.05 -90.3803 366.87 -92.5403 367.45C-93.8703 367.81 -95.2403 368.42 -95.0903 370.19C-94.9403 371.9 -93.9603 372.89 -92.3803 373.73M-74.4903 372.11C-72.6703 368.88 -72.0303 368.58 -68.6603 369.42C-65.5803 370.19 -63.4503 368.48 -61.6303 366.73C-58.6403 363.85 -55.5103 361.64 -51.2703 361.18C-50.4203 361.09 -49.6203 360.32 -48.8503 359.79C-47.2003 358.66 -45.5203 357.56 -43.9903 356.29C-42.8103 355.31 -41.5403 354.24 -40.8403 352.92C-39.7603 350.89 -38.4903 350.3 -36.5303 351.43C-34.2403 352.76 -32.1003 353.05 -29.7603 351.35C-28.9703 350.78 -27.5103 350.75 -26.4803 351C-24.5003 351.47 -23.9103 353.05 -25.2903 354.52C-27.2903 356.64 -29.3803 358.9 -31.8803 360.28C-40.3603 364.96 -49.0403 369.28 -57.6503 373.74C-57.7403 373.79 -57.8303 373.85 -57.9303 373.88M-0.0603333 335.77C0.229667 335.82 0.519667 335.87 0.799667 335.92C1.12967 336.54 1.49966 337.14 1.77966 337.78C2.38966 339.18 3.56965 339.82 4.82965 339.23C7.08965 338.18 9.34967 337 11.2597 335.43C11.9997 334.82 12.3297 332.72 11.8497 331.86C11.1897 330.69 9.45968 329.18 8.38968 329.33C3.19968 330.04 -2.07034 330.91 -6.16034 334.65C-6.86034 335.29 -7.59033 336.89 -7.26033 337.48C-6.68033 338.53 -5.40034 339.52 -4.24034 339.81C-3.48034 340 -2.26033 339.04 -1.51033 338.32C-0.84033 337.67 -0.530333 336.64 -0.0603333 335.78V335.77ZM52.0497 311.13C50.7397 311.13 49.5297 310.96 48.3797 311.17C46.1997 311.56 44.6797 311.14 44.0397 308.76C43.8297 307.99 43.2397 307.27 42.6597 306.68C40.8897 304.85 39.1597 305.25 38.4297 307.68C38.0697 308.88 38.0297 310.18 37.7497 311.41C37.3997 312.93 37.4197 315.03 36.4397 315.76C35.3897 316.55 33.3697 316.15 31.7797 316.08C30.1197 316.02 29.4497 316.92 29.3297 318.33C29.1897 319.84 30.2897 320.66 31.5097 320.32C34.3997 319.53 37.5297 318.88 39.9497 317.26C42.2397 315.72 44.1797 314.44 47.0797 314.77C49.8497 315.08 51.1297 314.03 52.0697 311.13H52.0497ZM17.4597 323.91C17.4597 323.85 17.4397 323.79 17.4297 323.73C17.1097 323.71 16.7597 323.57 16.4897 323.68C15.3997 324.11 14.2597 324.51 13.3297 325.18C13.0997 325.34 13.4597 327.03 13.7097 327.07C14.8297 327.26 16.0297 327.24 17.1497 327.05C18.6797 326.79 20.1497 326.19 21.6797 325.95C22.9297 325.75 24.5797 326.01 24.3097 324.15C24.0797 322.5 22.6197 323.05 21.4797 323.26C20.1397 323.51 18.7997 323.7 17.4497 323.92L17.4597 323.91ZM-22.3703 329.68C-22.5203 329.46 -22.6703 329.25 -22.8303 329.03C-23.5203 329.75 -24.5703 330.37 -24.8303 331.23C-25.2903 332.75 -24.4003 333.85 -22.8703 334.3C-21.2403 334.78 -17.6203 332.97 -17.0003 331.36C-16.5303 330.14 -17.1203 329.51 -18.3203 329.51C-19.6703 329.51 -21.0203 329.63 -22.3703 329.69V329.68ZM22.9397 315.91C23.4397 315.49 24.7197 314.88 25.2497 313.87C25.8797 312.66 23.7297 310.65 21.7397 310.83C20.6097 310.93 19.1997 311.74 18.5897 312.67C17.9097 313.72 20.1297 315.6 22.9397 315.91Z" fill="#4F718E"/>
<path d="M9.55981 276.31C10.3598 276.12 10.6798 275.94 10.9498 276C16.0498 277.19 21.1398 278.39 26.2298 279.61C31.0898 280.77 34.7298 278.49 35.3998 273.66C35.4998 272.93 34.7798 271.98 34.2298 271.29C32.6098 269.23 30.7498 267.35 29.2398 265.21C27.2798 262.43 28.3198 259.03 31.5898 258.16C34.4598 257.4 36.9698 256.46 38.6998 253.92C39.0098 253.46 39.7598 253.29 40.3198 253.01C41.9498 252.21 43.5798 251.43 45.4398 250.53C46.5298 252.53 48.1598 251.79 49.7698 250.39C50.5598 249.7 51.3898 249 52.0098 248.16C53.7098 245.85 55.7098 244.46 58.7198 245.46C58.9098 245.52 59.1898 245.55 59.3398 245.46C63.1498 243.18 67.6698 243.59 71.6898 242.19C73.8898 241.43 75.8798 241.15 78.1398 241.65C81.9198 242.48 85.6598 242.36 89.3098 240.77C90.2098 240.38 91.4098 240.24 92.3398 240.48C95.5398 241.3 98.3098 240.5 101.13 238.98C102.42 238.29 104.23 237.81 105.59 238.14C110.7 239.4 114.9 237.13 119.04 234.93C123.54 232.54 128.07 230.37 133.14 229.66C134.56 229.46 136.18 229.53 137.47 230.06C138.41 230.44 139.31 231.69 139.61 232.72C140.79 236.87 141.93 240.92 145.71 243.66C147.4 244.88 148.6 246.84 150.36 247.88C153.4 249.68 156.63 251.21 159.94 252.43C160.88 252.78 162.61 251.9 163.58 251.09C167.28 248.02 167.47 242.21 164.16 238.65C161.67 235.98 158.8 233.98 155.25 232.86C151.59 231.71 149.45 228.63 149.65 225.31C149.82 222.51 151.38 220.56 154.11 219.9C155.85 219.48 157.61 219.06 159.39 218.9C162.08 218.66 164.46 218.01 166.59 216.12C168.43 214.48 169.78 215.31 169.99 217.91C170.29 221.6 171.41 223.24 175.06 224.16C178.82 225.11 181.52 227.64 184.36 229.92C185.29 230.67 186.29 232.5 185.99 233.41C184.74 237.16 186.9 239.95 188.25 242.9C189.13 244.84 190.08 246.46 188.3 248.33C188.05 248.59 187.87 249.2 187.99 249.51C189.22 252.53 187.08 253.5 185.08 254.84C180.05 258.23 175.41 262.3 170.12 265.21C164.53 268.28 158.48 270.63 152.42 272.7C149.3 273.76 146.19 272.22 143.94 269.64C142.34 267.81 140.82 265.93 139.33 264.01C134.2 257.42 126.78 256.12 118.22 257.87C112.34 259.07 107.27 262.23 101.69 264C97.0898 265.46 93.2098 268.13 88.9298 269.99C75.5398 275.81 62.1898 282.08 46.9898 281.49C45.6498 281.44 44.2898 281.89 42.9298 282.09C36.1498 283.07 29.3798 284.04 22.5998 285.02C21.9798 285.11 21.1498 285.06 20.7998 285.43C18.3498 288.01 14.9898 287.58 11.9698 288.27C8.08981 289.15 4.23981 290.18 0.359812 291.04C-0.950188 291.33 -2.38018 291.53 -3.68018 291.32C-6.11018 290.94 -6.52019 289.25 -5.36019 285.37C-4.24019 281.61 -3.23018 280.86 -0.870184 281.49C2.23982 282.32 5.38981 283.01 8.55981 283.54C10.2898 283.83 10.7198 282.49 10.5198 281.07C10.2998 279.53 9.89981 278.02 9.52981 276.29L9.55981 276.31Z" fill="#4F718E"/>
<path d="M269.1 159.27C273.27 159.27 276.73 159.33 280.2 159.25C282.2 159.2 283.94 159.56 285.33 161.14C287.46 163.56 290.09 164.43 293.31 163.71C294.26 163.5 295.35 163.81 296.36 164C297.59 164.23 298.8 164.82 300.02 164.82C302.67 164.82 305.02 165.15 306.74 167.51C307.15 168.07 308.2 168.24 308.99 168.43C310.92 168.89 312.91 169.16 314.82 169.69C317.12 170.33 317.9 171.96 316.58 174.05C314.34 177.6 311.84 181 309.34 184.38C308.22 185.89 307.03 187.53 305.5 188.51C302.71 190.3 299.71 191.85 296.64 193.1C294.41 194.01 291.94 194.27 290.24 196.27C289.93 196.64 289.34 196.86 288.85 196.96C282.12 198.33 276.3 201.77 270.39 205.01C268.84 205.86 267.15 206.65 265.43 206.98C262.15 207.62 259.91 205.26 260.97 202.11C262.27 198.24 264.17 194.59 265.58 190.76C266.4 188.54 267.14 186.16 267.22 183.83C267.31 181.35 265.68 180.33 263.21 180.61C260.72 180.9 258.81 182.1 257.7 184.34C257.14 185.46 256.58 186.67 256.43 187.89C255.81 192.88 252.33 194.87 248.05 195.64C237.78 197.5 228.59 201.83 220.11 207.67C214.31 211.66 208.81 216.08 203.23 220.37C200.01 222.85 196.71 223.18 193.29 220.99C190.45 219.17 187.73 217.17 184.93 215.3C182.78 213.86 182.01 211.76 182.9 209.53C183.81 207.25 184.97 204.81 186.72 203.2C188.99 201.12 191.62 199.21 195 198.86C195.95 198.76 197.05 198.12 197.7 197.39C200.73 193.94 204.58 191.7 208.84 190.45C215.21 188.58 220.52 184.66 226.45 181.97C229.52 180.58 232.65 179.25 235.56 177.56C242.75 173.4 249.79 169 256.96 164.82C260.22 162.92 263.63 161.27 267.03 159.62C267.84 159.23 268.88 159.31 269.12 159.27H269.1Z" fill="#4F718E"/>
<path d="M-28.9902 235.86C-28.3002 228.68 -25.9402 222.21 -21.3902 216.51C-19.7802 214.49 -18.9102 211.91 -17.5102 209.71C-15.3202 206.26 -13.1902 202.72 -10.6102 199.57C-8.08021 196.48 -5.08021 193.77 -2.19021 190.99C0.859788 188.06 6.68979 187.96 9.80979 190.76C11.1698 191.98 12.3798 192.8 14.2998 191.8C14.8698 191.5 16.0598 191.94 16.7298 192.38C18.3498 193.46 19.7398 194.92 21.4098 195.9C22.9998 196.84 23.3898 197.81 22.6898 199.51C20.9298 203.79 19.7398 208.37 17.4898 212.36C15.0598 216.7 12.8898 221.4 8.64978 224.5C7.70978 225.18 6.7798 225.89 5.9498 226.7C2.9998 229.58 -0.160217 232.07 -3.96022 233.85C-9.48022 236.43 -14.8102 239.41 -20.2202 242.2C-20.6902 242.44 -21.1802 242.64 -21.6802 242.81C-26.2202 244.35 -28.9002 242.49 -29.0102 237.75C-29.0202 237.12 -29.0102 236.48 -29.0102 235.85L-28.9902 235.86Z" fill="#4F718E"/>
<path d="M219.39 230.51C219.69 231.03 219.97 231.57 220.31 232.07C221.35 233.57 221.01 234.92 219.7 235.97C218.73 236.75 217.56 237.29 216.5 237.95C215.19 238.77 213.8 239.48 212.63 240.46C210.82 241.98 207.96 242.55 205.85 241.55C203.43 240.41 202.62 237.23 204.46 234.76C210.87 226.18 217.88 218.25 227.96 213.72C229.85 212.87 231.53 211.51 233.22 210.27C237.13 207.42 241.91 206.69 246.24 204.83C248.39 203.91 250.47 205.03 251.16 207.4C251.87 209.82 251.66 212.12 249.92 214.23C247.78 216.83 246.11 219.85 243.76 222.22C241.06 224.95 238.03 227.46 234.8 229.53C231.5 231.65 227.82 232.78 223.86 230.59C222.69 229.94 221.15 229.94 219.78 229.65C219.65 229.93 219.52 230.21 219.38 230.49L219.39 230.51Z" fill="#4F718E"/>
<path d="M111.04 333.71C113.42 332.75 115.18 331.98 117 331.35C117.34 331.23 117.97 331.58 118.27 331.9C118.43 332.07 118.3 332.71 118.1 333.01C117.22 334.32 113.36 334.95 111.04 333.71Z" fill="#4F718E"/>
<path d="M128.31 327.65C126.9 328.82 125.98 329.75 124.89 330.4C124.42 330.68 123.59 330.35 122.93 330.3C123.06 329.54 122.93 328.52 123.38 328.05C124.58 326.8 126.11 326.87 128.31 327.65Z" fill="#4F718E"/>
<path d="M7.18977 273.37C5.72977 274.48 4.25977 275.59 2.79977 276.7C2.61977 276.46 2.43977 276.22 2.25977 275.97C3.21977 274.18 4.56979 272.9 6.63979 272.63C6.81979 272.88 7.00977 273.12 7.18977 273.37Z" fill="#4F718E"/>
<path d="M92.9698 329.64C92.3698 328.66 91.7298 328 91.8598 327.77C92.2598 327.06 92.9598 326.51 93.5398 325.89C93.8898 326.32 94.6098 326.87 94.5098 327.17C94.2698 327.93 93.6698 328.57 92.9698 329.64Z" fill="#4F718E"/>
</g>
</svg>
